<svg width="400" height="200" viewBox="0 0 400 200" fill="none" xmlns="http://www.w3.org/2000/svg">
<path d="M263.58 99.9748C263.58 91.3843 269.221 85.3205 277.375 85.3205C284.915 85.3205 290.053 89.5315 290.78 96.213H283.966C283.184 93.0687 280.894 91.4405 277.654 91.4405C273.298 91.4405 270.394 94.7531 270.394 99.9748C270.394 105.196 273.074 108.453 277.431 108.453C280.838 108.453 283.24 106.769 283.966 103.737H290.835C289.998 110.194 284.636 114.629 277.431 114.629C269.053 114.629 263.58 108.79 263.58 99.9748ZM293.729 99.9748C293.729 91.3282 299.928 85.3766 308.474 85.3766C317.019 85.3766 323.218 91.3282 323.218 99.9748C323.218 108.621 317.019 114.573 308.474 114.573C299.928 114.573 293.729 108.621 293.729 99.9748ZM300.543 99.9748C300.543 105.028 303.782 108.453 308.474 108.453C313.165 108.453 316.405 105.028 316.405 99.9748C316.405 94.9216 313.165 91.4966 308.474 91.4966C303.782 91.4966 300.543 94.9216 300.543 99.9748ZM339.399 114.629C331.413 114.629 326.442 108.734 326.442 100.143C326.442 91.4966 331.468 85.3205 339.79 85.3205C343.644 85.3205 347.051 86.9487 348.783 89.6999V72.126H355.541V113.899H349.285L348.838 109.576C347.163 112.776 343.588 114.629 339.399 114.629ZM340.907 108.341C345.655 108.341 348.727 104.916 348.727 99.9186C348.727 94.9216 345.655 91.4405 340.907 91.4405C336.16 91.4405 333.256 94.9777 333.256 99.9186C333.256 104.86 336.16 108.341 340.907 108.341ZM374.426 114.629C366.216 114.629 360.463 108.621 360.463 100.031C360.463 91.3282 366.104 85.3205 374.203 85.3205C382.469 85.3205 387.719 90.879 387.719 99.5256V101.603L366.942 101.659C367.445 106.544 370.014 109.014 374.538 109.014C378.28 109.014 380.737 107.555 381.519 104.916H387.831C386.658 110.98 381.631 114.629 374.426 114.629ZM374.259 90.9352C370.237 90.9352 367.78 93.1249 367.11 97.2797H380.961C380.961 93.4618 378.336 90.9352 374.259 90.9352Z" fill="#1C1C1E"/>
<path d="M21.6629 113.899H14.9048V72.126H21.6629V113.899ZM36.4624 114.629C30.5979 114.629 27.0234 111.204 27.0234 105.982C27.0234 100.873 30.7096 97.6728 37.2443 97.1674L45.5104 96.5498V95.9322C45.5104 92.1704 43.2763 90.6544 39.8135 90.6544C35.7922 90.6544 33.5581 92.3388 33.5581 95.2585H27.7495C27.7495 89.2507 32.6644 85.3205 40.1486 85.3205C47.577 85.3205 52.1568 89.363 52.1568 97.0552V113.899H46.1807L45.678 109.8C44.5051 112.664 40.763 114.629 36.4624 114.629ZM38.6965 109.464C42.8854 109.464 45.5663 106.937 45.5663 102.67V101.21L39.8135 101.659C35.5688 102.052 33.949 103.456 33.949 105.702C33.949 108.228 35.6246 109.464 38.6965 109.464ZM66.5025 114.629C60.638 114.629 57.0635 111.204 57.0635 105.982C57.0635 100.873 60.7497 97.6728 67.2844 97.1674L75.5508 96.5498V95.9322C75.5508 92.1704 73.3167 90.6544 69.8539 90.6544C65.8323 90.6544 63.5982 92.3388 63.5982 95.2585H57.7896C57.7896 89.2507 62.7046 85.3205 70.189 85.3205C77.6173 85.3205 82.1972 89.363 82.1972 97.0552V113.899H76.221L75.7183 109.8C74.5454 112.664 70.8034 114.629 66.5025 114.629ZM68.7366 109.464C72.9257 109.464 75.6066 106.937 75.6066 102.67V101.21L69.8539 101.659C65.6089 102.052 63.9892 103.456 63.9892 105.702C63.9892 108.228 65.6647 109.464 68.7366 109.464ZM88.3322 126.757V86.1627H94.6435L95.0903 90.3737C96.7659 87.1733 100.396 85.3205 104.585 85.3205C112.349 85.3205 117.487 90.9913 117.487 99.6941C117.487 108.341 112.795 114.629 104.585 114.629C100.452 114.629 96.8776 113.001 95.1462 110.193V126.757H88.3322ZM95.202 100.031C95.202 105.028 98.2739 108.453 102.965 108.453C107.769 108.453 110.617 104.972 110.617 100.031C110.617 95.09 107.769 91.5528 102.965 91.5528C98.2739 91.5528 95.202 95.0339 95.202 100.031Z" fill="#1C1C1E"/>
<path d="M164.007 77.7158L134.219 100.175L164.007 122.633" stroke="#1C1C1E" stroke-width="7" stroke-linecap="round" stroke-linejoin="round"/>
<path d="M213.653 77.7158L243.441 100.175L213.653 122.633" stroke="#1C1C1E" stroke-width="7" stroke-linecap="round" stroke-linejoin="round"/>
<path d="M188.829 116.394C197.74 116.394 204.964 109.132 204.964 100.174C204.964 91.2161 197.74 83.9541 188.829 83.9541C179.918 83.9541 172.694 91.2161 172.694 100.174C172.694 109.132 179.918 116.394 188.829 116.394Z" stroke="#1C1C1E" stroke-width="6"/>
<path d="M188.83 104.666C191.297 104.666 193.298 102.655 193.298 100.174C193.298 97.6937 191.297 95.6826 188.83 95.6826C186.361 95.6826 184.361 97.6937 184.361 100.174C184.361 102.655 186.361 104.666 188.83 104.666Z" fill="#1C1C1E"/>
<path d="M308.291 103.917C310.519 103.917 312.325 102.102 312.325 99.8622C312.325 97.6227 310.519 95.8071 308.291 95.8071C306.063 95.8071 304.257 97.6227 304.257 99.8622C304.257 102.102 306.063 103.917 308.291 103.917Z" fill="#1C1C1E"/>
</svg>
