<svg width="400" height="200" viewBox="0 0 400 200" fill="none" xmlns="http://www.w3.org/2000/svg">
<path d="M267 99.8488C267 91.2583 272.641 85.1945 280.795 85.1945C288.336 85.1945 293.474 89.4055 294.2 96.087H287.386C286.604 92.9428 284.314 91.3145 281.075 91.3145C276.718 91.3145 273.814 94.6272 273.814 99.8488C273.814 105.07 276.495 108.327 280.851 108.327C284.258 108.327 286.66 106.643 287.386 103.611H294.256C293.418 110.068 288.056 114.503 280.851 114.503C272.474 114.503 267 108.664 267 99.8488ZM297.149 99.8488C297.149 91.2022 303.349 85.2506 311.894 85.2506C320.439 85.2506 326.639 91.2022 326.639 99.8488C326.639 108.495 320.439 114.447 311.894 114.447C303.349 114.447 297.149 108.495 297.149 99.8488ZM303.963 99.8488C303.963 104.902 307.202 108.327 311.894 108.327C316.585 108.327 319.825 104.902 319.825 99.8488C319.825 94.7956 316.585 91.3706 311.894 91.3706C307.202 91.3706 303.963 94.7956 303.963 99.8488ZM342.82 114.503C334.833 114.503 329.862 108.608 329.862 100.017C329.862 91.3706 334.889 85.1945 343.211 85.1945C347.065 85.1945 350.472 86.8228 352.203 89.5739V72H358.961V113.773H352.706L352.259 109.45C350.583 112.65 347.009 114.503 342.82 114.503ZM344.328 108.215C349.075 108.215 352.147 104.79 352.147 99.7927C352.147 94.7956 349.075 91.3145 344.328 91.3145C339.58 91.3145 336.676 94.8517 336.676 99.7927C336.676 104.734 339.58 108.215 344.328 108.215ZM377.847 114.503C369.636 114.503 363.884 108.495 363.884 99.905C363.884 91.2022 369.525 85.1945 377.623 85.1945C385.889 85.1945 391.139 90.753 391.139 99.3996V101.477L370.362 101.533C370.865 106.418 373.434 108.888 377.958 108.888C381.7 108.888 384.158 107.429 384.94 104.79H391.251C390.078 110.854 385.051 114.503 377.847 114.503ZM377.679 90.8092C373.658 90.8092 371.2 92.9989 370.53 97.1538H384.381C384.381 93.3358 381.756 90.8092 377.679 90.8092Z" fill="#1C1C1E"/>
<path d="M14.7581 113.773H8V72H14.7581V113.773ZM29.5576 114.503C23.6931 114.503 20.1186 111.078 20.1186 105.857C20.1186 100.747 23.8048 97.5468 30.3395 97.0415L38.6056 96.4239V95.8062C38.6056 92.0444 36.3716 90.5284 32.9087 90.5284C28.8874 90.5284 26.6533 92.2128 26.6533 95.1325H20.8447C20.8447 89.1248 25.7597 85.1945 33.2438 85.1945C40.6722 85.1945 45.252 89.2371 45.252 96.9292V113.773H39.2759L38.7732 109.674C37.6003 112.538 33.8582 114.503 29.5576 114.503ZM31.7917 109.338C35.9806 109.338 38.6615 106.811 38.6615 102.544V101.084L32.9087 101.533C28.664 101.926 27.0443 103.33 27.0443 105.576C27.0443 108.102 28.7198 109.338 31.7917 109.338ZM59.5977 114.503C53.7332 114.503 50.1587 111.078 50.1587 105.857C50.1587 100.747 53.8449 97.5468 60.3796 97.0415L68.646 96.4239V95.8062C68.646 92.0444 66.4119 90.5284 62.9491 90.5284C58.9275 90.5284 56.6934 92.2128 56.6934 95.1325H50.8848C50.8848 89.1248 55.7998 85.1945 63.2842 85.1945C70.7125 85.1945 75.2924 89.2371 75.2924 96.9292V113.773H69.3162L68.8136 109.674C67.6407 112.538 63.8986 114.503 59.5977 114.503ZM61.8318 109.338C66.0209 109.338 68.7019 106.811 68.7019 102.544V101.084L62.9491 101.533C58.7041 101.926 57.0844 103.33 57.0844 105.576C57.0844 108.102 58.7599 109.338 61.8318 109.338ZM81.4274 126.631V86.0367H87.7387L88.1855 90.2477C89.8611 87.0473 93.4915 85.1945 97.6804 85.1945C105.444 85.1945 110.582 90.8653 110.582 99.5681C110.582 108.215 105.891 114.503 97.6804 114.503C93.5473 114.503 89.9728 112.875 88.2414 110.068V126.631H81.4274ZM88.2972 99.905C88.2972 104.902 91.3691 108.327 96.0607 108.327C100.864 108.327 103.712 104.846 103.712 99.905C103.712 94.964 100.864 91.4268 96.0607 91.4268C91.3691 91.4268 88.2972 94.9079 88.2972 99.905Z" fill="#1C1C1E"/>
<path d="M164.007 77.7158L134.219 100.175L164.007 122.633" stroke="#1C1C1E" stroke-width="7" stroke-linecap="round" stroke-linejoin="round"/>
<path d="M213.653 77.7158L243.441 100.175L213.653 122.633" stroke="#1C1C1E" stroke-width="7" stroke-linecap="round" stroke-linejoin="round"/>
<path d="M188.829 116.394C197.74 116.394 204.964 109.132 204.964 100.174C204.964 91.2161 197.74 83.9541 188.829 83.9541C179.918 83.9541 172.694 91.2161 172.694 100.174C172.694 109.132 179.918 116.394 188.829 116.394Z" stroke="#1C1C1E" stroke-width="6"/>
<path d="M188.83 104.666C191.297 104.666 193.298 102.655 193.298 100.174C193.298 97.6937 191.297 95.6826 188.83 95.6826C186.361 95.6826 184.361 97.6937 184.361 100.174C184.361 102.655 186.361 104.666 188.83 104.666Z" fill="#1C1C1E"/>
</svg>
